
<svg xmlns="http://www.w3.org/2000/svg"
     class="svg-snoweb svg-theme-dark"
     x="0"
     y="0"
     width="100%"
     height="100%"
     viewBox="0 0 100 100"
     preserveAspectRatio="xMidYMid meet"
>
<defs>
    <style>
        
            
            
            
        

        .svg-fill-primary {
            fill: #FFF;
        }

        .svg-fill-secondary {
            fill: #61B4F2;
        }

        .svg-fill-tertiary {
            fill: #155CD9;
        }

        .svg-stroke-primary {
            stroke: #FFF;
        }

        .svg-stroke-secondary {
            stroke: #61B4F2;
        }

        .svg-stroke-tertiary {
            stroke: #155CD9;
        }
    </style>
</defs>
    

<clipPath id="clip-path-202403-3015-3553-2a7ee7d2-315c-4870-9a5f-58101fd799d3">
    <rect x="0" y="0" width="100" height="100" rx="15" ry="15"></rect>
</clipPath>

<g clip-path="url(#clip-path-202403-3015-3553-2a7ee7d2-315c-4870-9a5f-58101fd799d3)">
    
    
    <rect 
            class="svg-fill-tertiary"
            x="0"
            y="0"
            width="100"
            height="100"
            rx="15"
            ry="15"
    >
    </rect>
    
    <g transform="translate(-22.50, -22.50) scale(1.45, 1.45)">
        <circle 
                class="svg-fill-secondary svg-builder-circle"
                cx="50"
                cy="50"
                r="50">
        </circle>
    </g>
</g>

    <g transform="translate(20.00, 20.00) scale(0.60, 0.60)">
        
    <path class="svg-fill-primary"
      d="M100,10.71V89.29A10.73,10.73,0,0,1,89.29,100H69.81V64.85H81.46L83.68,50.3H69.85V40.85c0-4,1.94-7.85,8.15-7.85h6.27V20.65a76.54,76.54,0,0,0-11.2-1c-11.42,0-18.88,7-18.88,19.57V50.3H41.49V64.85h12.7V100H10.71A10.73,10.73,0,0,1,0,89.29V10.71A10.73,10.73,0,0,1,10.71,0H89.29A10.73,10.73,0,0,1,100,10.71Z">
</path>


    </g>
</svg>